<svg width="99" height="100" viewBox="0 0 99 100" fill="none" xmlns="http://www.w3.org/2000/svg">
<circle cx="49.5" cy="50.5" r="49.5" fill="#E3E3E1"/>
<path d="M49.0721 4.77055C45.3093 4.80806 41.4899 5.31505 37.6871 6.33405C13.348 12.8557 -1.09518 37.8729 5.42626 62.2114C10.4994 81.1436 26.7637 94.086 45.1939 95.8333C44.6219 87.7935 44.998 79.6859 45.9505 71.4906L49.54 71.9072C48.5881 80.098 48.2314 88.1282 48.8304 96.0327C52.9437 96.0903 57.1336 95.5891 61.3036 94.4717C85.6424 87.9501 100.086 62.9334 93.5641 38.5947C88.0615 18.0588 69.3919 4.56733 49.0721 4.77036V4.77055ZM52.219 8.72282C54.9918 14.4894 56.2409 19.7926 56.0897 23.8938L50.5809 30.3903L45.9198 22.8299C46.4873 18.8552 48.6345 13.9729 52.219 8.72243V8.72282ZM38.5141 21.1641C39.7618 21.9266 40.978 22.7395 42.1595 23.6009L42.1527 23.6047L48.6664 34.171L48.084 41.6958L39.8814 33.0076C39.0035 29.6837 38.507 25.6754 38.5139 21.1639L38.5141 21.1641ZM64.21 23.1068C63.5673 27.3787 62.538 31.127 61.251 34.2064L51.7115 41.6595L52.3086 33.94L59.6549 25.2775C61.0644 24.5189 62.5823 23.7917 64.21 23.1068ZM35.8674 36.2711C37.0266 36.6944 38.1714 37.1561 39.2999 37.6556L47.7076 46.5609L47.094 54.4906L39.903 50.443C37.7799 47.3794 36.2533 42.6284 35.8674 36.2711ZM65.4011 38.488C64.1236 44.2743 62.0506 48.5388 59.6394 51.2845L50.7017 54.7054L51.334 46.5398L59.9292 39.8245C61.6173 39.3175 63.4437 38.8681 65.4013 38.4878L65.4011 38.488ZM34.6299 53.2512C35.9594 53.3817 37.2287 53.5557 38.4397 53.7655L46.7864 58.4636L46.0348 68.1772C41.9561 67.1009 37.5873 62.1878 34.6297 53.251L34.6299 53.2512ZM61.5529 55.1764C62.2962 55.1722 63.058 55.1842 63.8368 55.2122C59.4089 64.2937 53.989 68.5637 49.6319 68.5331L50.3931 58.6923L59.4265 55.2345C60.1347 55.1994 60.8436 55.18 61.5527 55.1764H61.5529Z" fill="#DF2425"/>
</svg>
