<svg width="99" height="99" viewBox="0 0 99 99" fill="none" xmlns="http://www.w3.org/2000/svg">
<circle cx="49.5" cy="49.5" r="49.5" fill="#DDC69E"/>
<path d="M30.9375 71.1562C34.3548 71.1562 37.125 68.386 37.125 64.9688C37.125 61.5515 34.3548 58.7812 30.9375 58.7812C27.5202 58.7812 24.75 61.5515 24.75 64.9688C24.75 68.386 27.5202 71.1562 30.9375 71.1562Z" fill="black"/>
<path d="M71.1562 68.0625C74.5735 68.0625 77.3438 65.2923 77.3438 61.875C77.3438 58.4577 74.5735 55.6875 71.1562 55.6875C67.739 55.6875 64.9688 58.4577 64.9688 61.875C64.9688 65.2923 67.739 68.0625 71.1562 68.0625Z" fill="black"/>
<path d="M40.2188 37.125C43.636 37.125 46.4062 34.3548 46.4062 30.9375C46.4062 27.5202 43.636 24.75 40.2188 24.75C36.8015 24.75 34.0312 27.5202 34.0312 30.9375C34.0312 34.3548 36.8015 37.125 40.2188 37.125Z" fill="black"/>
<path d="M43.3125 49.5C45.0211 49.5 46.4062 48.1149 46.4062 46.4062C46.4062 44.6976 45.0211 43.3125 43.3125 43.3125C41.6039 43.3125 40.2188 44.6976 40.2188 46.4062C40.2188 48.1149 41.6039 49.5 43.3125 49.5Z" fill="black"/>
<path d="M71.1562 21.6562C74.5735 21.6562 77.3438 18.886 77.3438 15.4688C77.3438 12.0515 74.5735 9.28125 71.1562 9.28125C67.739 9.28125 64.9688 12.0515 64.9688 15.4688C64.9688 18.886 67.739 21.6562 71.1562 21.6562Z" fill="black"/>
<path d="M89.7188 12.375C91.4274 12.375 92.8125 10.9899 92.8125 9.28125C92.8125 7.57262 91.4274 6.1875 89.7188 6.1875C88.0101 6.1875 86.625 7.57262 86.625 9.28125C86.625 10.9899 88.0101 12.375 89.7188 12.375Z" fill="black"/>
<path d="M49.5 74.25C51.2086 74.25 52.5938 72.8649 52.5938 71.1562C52.5938 69.4476 51.2086 68.0625 49.5 68.0625C47.7914 68.0625 46.4062 69.4476 46.4062 71.1562C46.4062 72.8649 47.7914 74.25 49.5 74.25Z" fill="black"/>
<path d="M49.5 92.8125C25.6781 92.8125 6.1875 73.3219 6.1875 49.5C6.1875 25.6781 25.6781 6.1875 49.5 6.1875H50.4281L54.7594 6.49687L53.8312 10.2094C53.5219 11.4469 53.2125 12.9937 53.2125 14.2312C53.2125 22.8937 60.0188 29.7 68.6813 29.7C71.775 29.7 74.8688 28.7719 77.6531 26.9156L81.675 31.5562C80.4375 32.7937 79.8187 34.3406 79.8187 35.8875C79.8187 39.9094 83.8406 43.3125 88.1719 41.7656L91.8844 40.2188L92.5031 44.2406C92.8125 46.0969 92.8125 47.9531 92.8125 49.5C92.8125 73.3219 73.3219 92.8125 49.5 92.8125ZM47.3344 12.375C27.8438 13.6125 12.375 29.7 12.375 49.5C12.375 69.9188 29.0813 86.625 49.5 86.625C69.9188 86.625 86.625 69.9188 86.625 49.5V48.2625C79.5094 48.5719 73.6312 43.0031 73.6312 35.8875V35.2687C72.0844 35.5781 70.5375 35.8875 68.6813 35.8875C56.6156 35.8875 47.025 26.2969 47.025 14.2312C47.025 13.6125 47.025 12.9938 47.3344 12.375Z" fill="black"/>
</svg>
