<svg width="99" height="97" viewBox="0 0 99 97" fill="none" xmlns="http://www.w3.org/2000/svg">
<ellipse cx="49.5" cy="48.5" rx="49.5" ry="48.5" fill="#D9D9D9"/>
<path d="M29.9584 76.4167C26.2734 76.4167 24.7938 69.8283 24.4867 67.2042C24.1561 64.6564 24.4631 62.0665 25.3801 59.6667C25.7831 58.5247 26.4763 57.5073 27.3916 56.7143C28.3069 55.9214 29.4127 55.3803 30.6005 55.1442C33.8667 54.5858 36.1838 56.54 39.143 57.21C39.6988 57.3884 40.2915 57.4197 40.863 57.3008C41.4346 57.182 41.9656 56.917 42.4042 56.5318C42.8429 56.1466 43.1742 55.6542 43.3659 55.1028C43.5576 54.5514 43.6031 53.9597 43.498 53.3854C42.2696 48.5837 33.5317 48.5 29.9584 48.5C29.9584 43.3075 35.6534 42.6375 39.7292 43.0283C42.1472 43.2619 44.5281 43.7868 46.8201 44.5917C48.2159 45.0662 49.8351 46.2667 51.3705 46.155C53.6876 45.9596 54.1621 43.5587 53.1571 41.8C50.7284 37.6683 43.833 37.3333 39.7292 37.3333C39.7292 31.75 44.5588 30.6892 49.193 31.5267C51.5858 31.9973 53.9177 32.7371 56.1442 33.7321C57.568 34.3462 59.2709 35.5187 60.8342 34.9883C64.8542 33.76 60.6667 29.4608 58.8801 28.4279C57.6261 27.7359 56.2957 27.1926 54.9159 26.8087C53.4084 26.3621 51.5659 26.5296 52.9338 24.7708C55.0728 22.8837 57.7266 21.6783 60.5551 21.3092C65.8313 20.0808 73.1176 19.8575 74.4017 26.5017C74.8296 30.0095 73.9879 33.5547 72.0288 36.4958C66.828 45.3919 60.3893 53.5037 52.9059 60.5879C48.9422 64.6511 44.6467 68.3769 40.0642 71.7267C37.2726 73.7367 33.5876 76.4167 29.9584 76.4167Z" fill="#DF2425"/>
</svg>
